<svg width="32" height="32" viewBox="0 0 32 32" fill="none" xmlns="http://www.w3.org/2000/svg">
<path d="M16.0439 0C17.5165 0 18.9294 0.605142 19.9707 1.68262C21.012 2.7602 21.5967 4.22217 21.5967 5.74609C21.5967 8.84554 17.9591 13.667 16.5713 15.3955C18.2707 14.0281 23.1346 10.3439 26.2539 10.3438C27.7778 10.3438 29.2398 10.9294 30.3174 11.9707C31.3947 13.0119 31.9999 14.424 32 15.8965C32 17.3691 31.395 18.7819 30.3174 19.8232C29.2398 20.8646 27.7778 21.4492 26.2539 21.4492C23.0505 21.4491 18.0067 17.5646 16.4404 16.293C17.7121 17.8593 21.5966 22.903 21.5967 26.1064C21.5967 27.6304 21.012 29.0923 19.9707 30.1699C18.9294 31.2474 17.5165 31.8525 16.0439 31.8525C14.5716 31.8525 13.1594 31.2472 12.1182 30.1699C11.0768 29.0923 10.4912 27.6304 10.4912 26.1064C10.4912 22.9196 14.3361 17.9113 15.6279 16.3174C14.027 17.6143 9.02825 21.4492 5.8457 21.4492C4.322 21.4491 2.86069 20.8643 1.7832 19.8232C0.70562 18.7819 0.0996094 17.3691 0.0996094 15.8965C0.0996618 14.4239 0.70569 13.012 1.7832 11.9707C2.86072 10.9295 4.32188 10.3438 5.8457 10.3438C8.94589 10.3438 13.7696 13.9831 15.4971 15.3701C14.0945 13.6202 10.4912 8.83055 10.4912 5.74609C10.4912 4.22217 11.0768 2.7602 12.1182 1.68262C13.1594 0.60532 14.5716 9.18492e-05 16.0439 0Z" fill="black"/>
</svg>
